<?xml version="1.0" encoding="UTF-8" standalone="no"?>
<svg
   xmlns:dc="http://purl.org/dc/elements/1.1/"
   xmlns:cc="http://creativecommons.org/ns#"
   xmlns:rdf="http://www.w3.org/1999/02/22-rdf-syntax-ns#"
   xmlns:svg="http://www.w3.org/2000/svg"
   xmlns="http://www.w3.org/2000/svg"
   id="svg4081"
   viewBox="0 0 772.51629 772.51628"
   version="1.1"
   width="70"
   height="70">
  <defs
     id="defs4083">
    <filter
       id="filter4037"
       height="1.2421"
       width="1.0798"
       y="-0.12104"
       x="-0.039886001"
       style="color-interpolation-filters:sRGB">
      <feGaussianBlur
         id="feGaussianBlur4039"
         stdDeviation="11.868751" />
    </filter>
  </defs>
  <g
     id="layer1"
     transform="translate(-68.027863,-23.250854)">
    <path
       id="path4043"
       d="m 454.278,160.51201 c -99.484,0 -179.81,80.41 -179.81,179.59 0,31.186 7.9688,60.528 21.938,86.094 l 157.88,264.31 157.88,-264.31 c 13.969,-25.566 21.938,-54.908 21.938,-86.094 0,-99.184 -80.328,-179.59 -179.81,-179.59 z m -2,104.37 c 0.6674,-0.0169 1.3285,0 2,0 42.975,0 77.812,34.838 77.812,77.813 0,42.975 -34.838,77.812 -77.812,77.812 -42.975,0 -77.812,-34.838 -77.812,-77.812 0,-42.303 33.766,-76.747 75.812,-77.813 z"
       style="fill:#ffffff;stroke:none;stroke-width:10.39700031" />
    <circle
       style="opacity:1;fill:none;fill-opacity:1;fill-rule:evenodd;stroke:#ffffff;stroke-width:35;stroke-linecap:butt;stroke-linejoin:round;stroke-miterlimit:4;stroke-dasharray:none;stroke-opacity:1"
       id="path4153"
       cx="454.28601"
       cy="409.509"
       r="368.75815" />
  </g>
</svg>
